<?xml version="1.0" encoding="utf-8"?>
<!-- Generator: Adobe Illustrator 16.0.4, SVG Export Plug-In . SVG Version: 6.00 Build 0)  -->
<!DOCTYPE svg PUBLIC "-//W3C//DTD SVG 1.1//EN" "http://www.w3.org/Graphics/SVG/1.1/DTD/svg11.dtd">
<svg version="1.1" id="Layer_1" xmlns="http://www.w3.org/2000/svg" xmlns:xlink="http://www.w3.org/1999/xlink" x="0px" y="0px"
	 width="111.479px" height="45.557px" viewBox="0 0 111.479 45.557" enable-background="new 0 0 111.479 45.557"
	 xml:space="preserve">
<g>
	<path fill="#FFFFFF" d="M3.128,35.202V3.128h16.519c3.063,0,5.404,0.263,7.023,0.788s2.924,1.499,3.916,2.921
		c0.992,1.422,1.488,3.154,1.488,5.196c0,1.78-0.379,3.314-1.138,4.606c-0.759,1.291-1.803,2.337-3.13,3.139
		c-0.847,0.511-2.006,0.934-3.481,1.269c1.181,0.395,2.041,0.789,2.58,1.183c0.364,0.263,0.893,0.825,1.585,1.686
		c0.692,0.862,1.155,1.526,1.388,1.993l4.799,9.294H23.478L18.18,25.4c-0.671-1.269-1.269-2.093-1.794-2.472
		c-0.714-0.496-1.524-0.744-2.428-0.744h-0.875v13.018H3.128z M13.083,16.124h4.179c0.452,0,1.327-0.146,2.625-0.438
		c0.656-0.132,1.192-0.467,1.608-1.007c0.416-0.539,0.624-1.159,0.624-1.859c0-1.036-0.328-1.831-0.984-2.385
		c-0.656-0.555-1.889-0.832-3.698-0.832h-4.354V16.124z"/>
	<path fill="#FFFFFF" d="M34.545,3.128h9.414l3.389,17.956l4.96-17.956h9.379l4.973,17.932l3.393-17.932h9.365l-7.07,32.074h-9.719
		l-5.625-20.194L51.4,35.202h-9.719L34.545,3.128z"/>
	<path fill="#FFFFFF" d="M82.613,3.128h16.474c3.588,0,6.276,0.854,8.063,2.56c1.786,1.707,2.68,4.135,2.68,7.286
		c0,3.238-0.974,5.769-2.921,7.592S101.99,23.3,97.994,23.3h-5.426v11.902h-9.955V3.128z M92.568,16.802h2.428
		c1.911,0,3.252-0.332,4.025-0.995s1.16-1.513,1.16-2.549c0-1.006-0.336-1.86-1.007-2.56c-0.671-0.7-1.932-1.05-3.785-1.05h-2.822
		V16.802z"/>
</g>
<g>
	<path fill="#FFFFFF" d="M3.127,43.585v-5.658h3.019c0.607,0,1.068,0.051,1.384,0.152c0.315,0.102,0.568,0.281,0.757,0.539
		c0.188,0.258,0.283,0.542,0.283,0.853c0,0.401-0.156,0.74-0.469,1.015c-0.313,0.275-0.796,0.451-1.449,0.525
		c0.238,0.096,0.419,0.189,0.543,0.282c0.264,0.2,0.513,0.451,0.748,0.753l1.185,1.539H7.995l-0.901-1.177
		c-0.263-0.34-0.48-0.6-0.65-0.78c-0.17-0.18-0.323-0.306-0.458-0.378c-0.135-0.071-0.272-0.122-0.411-0.149
		c-0.102-0.02-0.269-0.027-0.501-0.027H4.029v2.512H3.127z M4.029,40.425h1.937c0.412,0,0.734-0.035,0.966-0.106
		c0.232-0.071,0.409-0.185,0.529-0.34c0.121-0.155,0.181-0.325,0.181-0.508c0-0.268-0.117-0.487-0.351-0.66
		c-0.233-0.172-0.603-0.258-1.107-0.258H4.029V40.425z"/>
	<path fill="#FFFFFF" d="M10.136,43.585v-5.658h0.901v5.658H10.136z"/>
	<path fill="#FFFFFF" d="M17.483,41.602l0.901,0.189c-0.189,0.614-0.529,1.083-1.02,1.407c-0.491,0.322-1.091,0.484-1.8,0.484
		c-0.734,0-1.331-0.125-1.791-0.373c-0.459-0.248-0.809-0.607-1.049-1.079c-0.24-0.471-0.36-0.977-0.36-1.517
		c0-0.59,0.135-1.104,0.406-1.542c0.271-0.439,0.656-0.772,1.157-1c0.5-0.228,1.05-0.341,1.65-0.341
		c0.682,0,1.254,0.144,1.719,0.432c0.464,0.288,0.788,0.693,0.971,1.216l-0.887,0.174c-0.158-0.411-0.387-0.712-0.687-0.899
		c-0.301-0.188-0.678-0.282-1.133-0.282c-0.523,0-0.961,0.104-1.312,0.312c-0.352,0.208-0.599,0.489-0.741,0.84
		c-0.143,0.351-0.213,0.713-0.213,1.086c0,0.481,0.084,0.9,0.253,1.26c0.168,0.359,0.431,0.628,0.787,0.806
		c0.355,0.177,0.741,0.267,1.156,0.267c0.505,0,0.932-0.121,1.282-0.363S17.359,42.077,17.483,41.602z"/>
	<path fill="#FFFFFF" d="M21.227,43.585v-4.99h-2.244v-0.668h5.397v0.668h-2.252v4.99H21.227z"/>
	<path fill="#FFFFFF" d="M25.323,43.585v-5.658h4.923v0.668h-4.022v1.733h3.767v0.663h-3.767v1.927h4.18v0.667H25.323z"/>
	<path fill="#FFFFFF" d="M31.662,43.585v-5.658h3.019c0.607,0,1.068,0.051,1.384,0.152c0.315,0.102,0.568,0.281,0.757,0.539
		c0.188,0.258,0.283,0.542,0.283,0.853c0,0.401-0.156,0.74-0.469,1.015c-0.313,0.275-0.796,0.451-1.449,0.525
		c0.238,0.096,0.419,0.189,0.543,0.282c0.263,0.2,0.512,0.451,0.748,0.753l1.185,1.539H36.53l-0.901-1.177
		c-0.263-0.34-0.48-0.6-0.65-0.78c-0.17-0.18-0.323-0.306-0.458-0.378c-0.135-0.071-0.271-0.122-0.411-0.149
		c-0.102-0.02-0.269-0.027-0.501-0.027h-1.045v2.512H31.662z M32.563,40.425H34.5c0.412,0,0.734-0.035,0.966-0.106
		c0.232-0.071,0.409-0.185,0.529-0.34s0.181-0.325,0.181-0.508c0-0.268-0.116-0.487-0.351-0.66
		c-0.233-0.172-0.603-0.258-1.107-0.258h-2.155V40.425z"/>
	<path fill="#FFFFFF" d="M42.349,43.585l-1.807-5.658h0.924l1.036,3.709c0.111,0.389,0.207,0.775,0.288,1.158
		c0.173-0.604,0.276-0.953,0.307-1.046l1.295-3.821h1.087l0.976,2.864c0.245,0.71,0.421,1.378,0.529,2.003
		c0.086-0.357,0.2-0.768,0.339-1.23l1.068-3.637h0.906l-1.867,5.658h-0.869l-1.435-4.311c-0.121-0.361-0.192-0.582-0.214-0.664
		c-0.071,0.26-0.138,0.48-0.2,0.664l-1.444,4.311H42.349z"/>
	<path fill="#FFFFFF" d="M50.156,43.585v-5.658h4.923v0.668h-4.022v1.733h3.767v0.663h-3.767v1.927h4.18v0.667H50.156z"/>
	<path fill="#FFFFFF" d="M56.444,43.585v-5.658h2.555c0.52,0,0.937,0.057,1.251,0.172c0.314,0.114,0.561,0.291,0.738,0.529
		c0.179,0.238,0.267,0.487,0.267,0.747c0,0.242-0.079,0.47-0.237,0.684c-0.157,0.214-0.396,0.386-0.715,0.518
		c0.412,0.1,0.728,0.271,0.95,0.513c0.221,0.242,0.332,0.528,0.332,0.856c0,0.266-0.067,0.512-0.202,0.74
		c-0.135,0.228-0.301,0.402-0.499,0.526c-0.198,0.124-0.447,0.217-0.746,0.28c-0.299,0.062-0.665,0.094-1.099,0.094H56.444z
		 M57.346,40.305h1.472c0.399,0,0.686-0.022,0.859-0.065c0.229-0.057,0.402-0.15,0.518-0.281c0.116-0.132,0.174-0.297,0.174-0.495
		c0-0.188-0.054-0.353-0.162-0.495c-0.108-0.144-0.263-0.241-0.464-0.294c-0.202-0.053-0.546-0.079-1.036-0.079h-1.36V40.305z
		 M57.346,42.918h1.695c0.291,0,0.495-0.009,0.613-0.027c0.207-0.03,0.381-0.083,0.52-0.154s0.254-0.177,0.344-0.314
		c0.09-0.138,0.135-0.297,0.135-0.478c0-0.21-0.065-0.394-0.195-0.549c-0.13-0.156-0.311-0.266-0.542-0.328
		c-0.23-0.063-0.563-0.095-0.996-0.095h-1.574V42.918z"/>
	<path fill="#FFFFFF" d="M65.468,43.585v-5.658h2.569c0.452,0,0.797,0.019,1.036,0.054c0.334,0.046,0.614,0.134,0.84,0.265
		c0.226,0.129,0.408,0.312,0.546,0.546c0.138,0.234,0.207,0.492,0.207,0.772c0,0.481-0.185,0.889-0.553,1.222
		c-0.369,0.333-1.035,0.499-1.997,0.499h-1.747v2.301H65.468z M66.369,40.617h1.76c0.582,0,0.995-0.09,1.24-0.271
		c0.244-0.18,0.367-0.434,0.367-0.76c0-0.237-0.072-0.439-0.216-0.608c-0.144-0.168-0.333-0.28-0.569-0.334
		c-0.152-0.033-0.432-0.05-0.84-0.05h-1.742V40.617z"/>
	<path fill="#FFFFFF" d="M71.826,43.585v-5.658h3.019c0.607,0,1.068,0.051,1.384,0.152c0.316,0.102,0.568,0.281,0.757,0.539
		c0.188,0.258,0.283,0.542,0.283,0.853c0,0.401-0.156,0.74-0.469,1.015c-0.312,0.275-0.795,0.451-1.449,0.525
		c0.239,0.096,0.42,0.189,0.543,0.282c0.263,0.2,0.513,0.451,0.748,0.753l1.185,1.539h-1.133l-0.901-1.177
		c-0.263-0.34-0.479-0.6-0.65-0.78c-0.17-0.18-0.323-0.306-0.458-0.378c-0.135-0.071-0.271-0.122-0.411-0.149
		c-0.102-0.02-0.27-0.027-0.502-0.027h-1.045v2.512H71.826z M72.727,40.425h1.937c0.412,0,0.733-0.035,0.966-0.106
		s0.409-0.185,0.529-0.34c0.121-0.155,0.182-0.325,0.182-0.508c0-0.268-0.117-0.487-0.351-0.66
		c-0.234-0.172-0.604-0.258-1.108-0.258h-2.155V40.425z"/>
	<path fill="#FFFFFF" d="M78.835,43.585v-5.658h0.901v5.658H78.835z"/>
	<path fill="#FFFFFF" d="M81.314,43.585v-5.658h0.924l3.576,4.443v-4.443h0.864v5.658h-0.924l-3.576-4.445v4.445H81.314z"/>
	<path fill="#FFFFFF" d="M89.925,43.585v-4.99h-2.243v-0.668h5.396v0.668h-2.252v4.99H89.925z"/>
	<path fill="#FFFFFF" d="M94.157,43.585v-5.658h0.901v5.658H94.157z"/>
	<path fill="#FFFFFF" d="M96.637,43.585v-5.658h0.924l3.576,4.443v-4.443H102v5.658h-0.924L97.5,39.14v4.445H96.637z"/>
	<path fill="#FFFFFF" d="M106.701,41.366v-0.664l2.884-0.004v2.1c-0.442,0.293-0.899,0.514-1.369,0.662
		c-0.472,0.148-0.954,0.223-1.45,0.223c-0.668,0-1.275-0.12-1.822-0.357c-0.547-0.238-0.959-0.582-1.237-1.033
		c-0.279-0.449-0.418-0.953-0.418-1.509c0-0.551,0.139-1.064,0.416-1.542c0.276-0.477,0.675-0.832,1.195-1.063
		c0.52-0.231,1.119-0.347,1.797-0.347c0.492,0,0.938,0.066,1.336,0.199c0.397,0.132,0.709,0.317,0.936,0.554
		c0.226,0.237,0.397,0.546,0.516,0.927l-0.813,0.185c-0.102-0.288-0.229-0.514-0.381-0.68c-0.151-0.164-0.368-0.296-0.649-0.395
		c-0.282-0.1-0.595-0.149-0.938-0.149c-0.411,0-0.768,0.052-1.068,0.156c-0.3,0.104-0.542,0.242-0.727,0.411
		c-0.185,0.17-0.327,0.357-0.43,0.561c-0.173,0.35-0.26,0.729-0.26,1.139c0,0.504,0.104,0.926,0.313,1.266s0.513,0.592,0.912,0.757
		c0.4,0.165,0.824,0.247,1.272,0.247c0.391,0,0.771-0.062,1.143-0.188c0.372-0.125,0.653-0.258,0.845-0.399v-1.054H106.701z"/>
</g>
</svg>
